<?xml version="1.0" standalone="no"?>
<svg xmlns="http://www.w3.org/2000/svg" width="24" height="24"><rect width="24" height="24" opacity="0"></rect><g><path d="M11.04 8.04Q10.66 7.82 10.26 7.91Q9.86 7.99 9.59 8.29Q9.31 8.59 9.31 9.02L9.31 15.05Q9.31 15.48 9.59 15.79Q9.86 16.1 10.26 16.18Q10.66 16.25 11.04 16.03L16.25 13.03Q16.61 12.82 16.74 12.43Q16.87 12.05 16.74 11.65Q16.61 11.26 16.25 11.04L11.04 8.04Z" fill="rgba(0,0,0,0.9019607843137255)"></path><path d="M11.95 23.09Q14.95 23.09 17.5 21.59Q20.04 20.09 21.54 17.54Q23.04 15 23.04 12Q23.04 9 21.55 6.44Q20.06 3.89 17.51 2.39Q14.95 0.89 11.95 0.89Q8.83 0.89 6.18 2.51Q3.53 4.13 2.09 6.89Q1.97 7.18 2.05 7.46Q2.14 7.75 2.42 7.9Q2.69 8.04 2.99 7.94Q3.29 7.85 3.43 7.58Q4.68 5.18 6.97 3.79Q9.26 2.4 11.95 2.4Q14.54 2.4 16.75 3.7Q18.96 4.99 20.26 7.2Q21.55 9.41 21.55 12Q21.55 14.59 20.26 16.8Q18.96 19.01 16.75 20.3Q14.54 21.6 11.95 21.6Q9.26 21.6 6.97 20.21Q4.68 18.82 3.43 16.42Q3.29 16.13 2.99 16.03Q2.69 15.94 2.42 16.08Q2.14 16.22 2.05 16.52Q1.97 16.82 2.09 17.11Q3.53 19.87 6.18 21.48Q8.83 23.09 11.95 23.09ZM2.47 10.49Q1.85 10.49 1.4 10.93Q0.96 11.38 0.96 12Q0.96 12.62 1.4 13.07Q1.85 13.51 2.47 13.51Q3.1 13.51 3.54 13.07Q3.98 12.62 3.98 12Q3.98 11.38 3.54 10.93Q3.1 10.49 2.47 10.49Z" fill="rgba(0,0,0,0.9019607843137255)"></path></g></svg>