<?xml version="1.0" standalone="no"?>
<svg xmlns="http://www.w3.org/2000/svg" width="24" height="24"><rect width="24" height="24" opacity="0"></rect><g><path d="M16.15 21.5Q16.32 21.77 16.63 21.86Q16.94 21.96 17.16 21.79Q19.49 20.52 21 18.26Q22.44 16.03 22.69 13.39Q22.94 10.75 21.94 8.3Q21.14 6.5 19.97 5.18Q19.75 4.94 19.44 4.93Q19.13 4.92 18.91 5.11Q18.67 5.33 18.66 5.64Q18.65 5.95 18.84 6.19Q19.9 7.34 20.54 8.88Q21.41 10.99 21.19 13.26Q20.98 15.53 19.73 17.45Q19.08 18.38 18.25 19.16Q17.42 19.94 16.44 20.47Q16.18 20.64 16.09 20.94Q16.01 21.24 16.15 21.5ZM8.28 21.7Q8.42 21.43 8.32 21.13Q8.21 20.83 7.94 20.71Q6.41 19.97 5.24 18.72Q4.08 17.47 3.43 15.89Q2.52 13.68 2.81 11.34Q3.1 9 4.44 7.07Q5.78 5.14 7.92 4.08Q8.18 3.94 8.29 3.64Q8.4 3.34 8.26 3.07Q8.14 2.81 7.84 2.7Q7.54 2.59 7.27 2.74Q4.78 3.96 3.22 6.2Q1.66 8.45 1.32 11.17Q0.98 13.9 2.04 16.46Q2.78 18.29 4.14 19.73Q5.5 21.17 7.27 22.03Q7.56 22.2 7.86 22.08Q8.16 21.96 8.28 21.7ZM7.82 8.54Q7.58 8.35 7.27 8.39Q6.96 8.42 6.77 8.69Q6.07 9.6 5.76 10.54Q5.45 11.47 5.45 12.6Q5.45 13.75 5.84 14.82Q6.24 15.89 6.96 16.75Q7.15 16.99 7.46 17.02Q7.78 17.04 8.02 16.85Q8.26 16.66 8.28 16.34Q8.3 16.03 8.11 15.79Q6.96 14.42 6.96 12.6Q6.96 11.78 7.26 10.94Q7.56 10.1 7.97 9.6Q8.16 9.36 8.12 9.05Q8.09 8.74 7.82 8.54ZM17.59 8.69Q17.42 8.45 17.11 8.4Q16.8 8.35 16.54 8.54Q16.3 8.74 16.25 9.04Q16.2 9.34 16.39 9.6Q16.78 10.06 17.1 10.87Q17.42 11.69 17.42 12.6Q17.42 13.44 17.14 14.27Q16.85 15.1 16.25 15.79Q16.06 16.03 16.08 16.34Q16.1 16.66 16.34 16.85Q16.58 17.04 16.87 17.03Q17.16 17.02 17.38 16.78L17.4 16.75Q17.98 16.1 18.44 15.02Q18.91 13.94 18.91 12.6Q18.91 11.5 18.58 10.54Q18.24 9.58 17.59 8.69Z" fill="rgba(0,0,0,0.9019607843137255)"></path><path d="M14.38 1.8Q13.85 1.85 13.51 2.24Q13.18 2.64 13.18 3.17L13.25 9.17Q13.25 9.72 12.79 10.02Q12.34 10.32 11.66 10.49L11.21 10.61Q10.42 10.85 9.73 11.5Q9.05 12.14 9 13.2Q8.98 13.94 9.4 14.53Q9.82 15.12 10.5 15.4Q11.18 15.67 11.88 15.55Q12.6 15.43 13.26 15.01Q13.92 14.59 14.33 13.87Q14.74 13.15 14.74 12.22L14.74 6.31L14.74 6.05Q14.74 5.66 14.76 5.36Q14.78 5.06 14.86 4.92Q15.05 4.61 15.3 4.42Q15.55 4.22 16.15 3.86L16.46 3.67Q17.16 3.24 17.44 2.66Q17.71 2.09 17.54 1.39L14.38 1.8Z" fill="rgba(0,0,0,0.9019607843137255)"></path></g></svg>